<svg fill="none" height="16" viewBox="0 0 16 16" width="16" xmlns="http://www.w3.org/2000/svg"><path d="m16 8c0 4.4183-3.5817 8-8 8-4.41828 0-8-3.5817-8-8 0-4.41828 3.58172-8 8-8 4.4183 0 8 3.58172 8 8zm-3.9697-3.03033c-.2929-.29289-.7677-.29289-1.0606 0-.0071.00707-.0138.01457-.0199.02243l-3.4724 4.42464-2.09352-2.09352c-.2929-.29289-.76777-.29289-1.06066 0-.2929.2929-.2929.76777 0 1.06066l2.64644 2.64642c.2929.2929.76777.2929 1.06066 0 .00653-.0065.01268-.0134.01844-.0206l3.99224-4.99023c.2822-.29365.2786-.7605-.0107-1.0498z" fill="#28a745"/></svg>